<?xml version="1.0" encoding="UTF-8"?>
<!DOCTYPE svg PUBLIC "-//W3C//DTD SVG 1.1//EN" "http://www.w3.org/Graphics/SVG/1.1/DTD/svg11.dtd">
<!-- Creator: CorelDRAW 2019 (64-Bit) -->
<svg xmlns="http://www.w3.org/2000/svg" xml:space="preserve" width="200mm" height="200mm" version="1.1" style="shape-rendering:geometricPrecision; text-rendering:geometricPrecision; image-rendering:optimizeQuality; fill-rule:evenodd; clip-rule:evenodd"
viewBox="0 0 19984.81 19984.81"
 xmlns:xlink="http://www.w3.org/1999/xlink">
 <defs>
  <style type="text/css">
   <![CDATA[
    .fil0 {fill:#1734CD}
    .fil2 {fill:white}
    .fil3 {fill:#00D54B;fill-rule:nonzero}
    .fil4 {fill:white;fill-rule:nonzero}
    .fil1 {fill:white;fill-rule:nonzero}
   ]]>
  </style>
 </defs>
 <g id="Capa_x0020_1">
  <metadata id="CorelCorpID_0Corel-Layer"/>
  <g id="_2613095375136">
   <rect class="fil0" x="-0" y="-0" width="19984.81" height="19984.81"/>
   <g>
    <path class="fil1" d="M10289.96 12847.04c19.94,29.38 39.16,71.64 57.66,112.61 29.38,64.55 54.95,120.23 84.51,129.83 12.15,3.81 26.11,5.81 41.53,5.81 67.82,0 161.75,-36.45 229.02,-89.58 38.45,-31.92 26.3,-53.13 8.89,-81.96 -5.08,-9.43 -11.43,-19.76 -17.24,-33.18 -18.5,-35.18 -28.83,-71.63 -38.44,-104.27 -18.49,-65.28 -34.45,-120.95 -104.26,-110.61 -100.46,13.96 -196.93,21.03 -305.01,21.03 -1.26,0 -35.17,0 -46.05,23.75 -11.6,26.84 15.23,52.4 44.07,78.7 16.68,15.23 33.18,30.64 45.34,47.86zm3071.24 -1040.85c-7.61,48.05 -19.23,71.09 -25.57,82.69 -6.35,11.42 -17.23,36.44 -53.13,36.44 -38.99,0.55 -35.72,-45.51 -36.45,-51.86 0,0 -4.35,-127.29 -28.65,-181.14 -27.02,-58.76 -154.86,-223.23 -229.03,-216.16 -18.67,1.27 -66.55,30.1 -102.99,76.7 -43.52,56.95 -42.98,64.01 -56.4,72.36 -13.42,8.34 -31.37,3.81 -36.99,-29.38 -5.81,-33.36 -11.6,-60.2 3.81,-124.21 15.96,-63.83 31.37,-77.25 49.87,-122.77 0,0 38.44,-89.58 53.13,-111.34 39.53,-60.75 92.66,-56.95 92.66,-56.95 14.69,1.28 60.2,-4.35 109.53,56.95 56.76,71.63 44.61,64.73 60.74,90.3 15.96,24.84 33.18,51.14 79.97,102.27 47.32,51.13 99,151.59 113.87,213.61 13.96,61.47 13.42,114.6 5.63,162.48zm-355.05 815.64c0,0 -6.35,58.94 -33.91,83.78 -27.38,25.02 -126.56,39.17 -178.42,37.17 -51.87,-1.81 -69.64,-9.61 -80.52,-25.57 -12.14,-17.96 7.61,-52.4 7.61,-52.4 6.36,-13.42 67.1,-139.44 190.05,-172.82 0,0 38.98,-13.96 76.7,4.54 37.71,17.95 19.76,112.61 18.5,125.3zm-1304.33 -2066.84c-4.36,15.41 -13.97,25.02 -24.3,25.02 -4.35,0 -15.23,-1.99 -19.22,-21.76 -40.81,-207.26 -65.1,-309.71 -112.61,-404.91 -15.23,-30.83 -33.73,-56.4 -50.41,-79.43 -34.63,-47.32 -64.73,-88.3 -30.83,-143.97 9.61,-16.51 34.63,-27.39 61.47,-27.39 13.42,0 26.3,2.55 36.45,7.62 40.25,19.22 79.42,67.82 118.95,148.51 100.46,204 21.22,493.76 20.49,496.31zm2791.08 2311.82c-53.68,-26.84 -117.14,-58.21 -117.14,-58.21 -138.72,-81.24 -219.41,-215.43 -296.84,-346 -29.92,-51.13 -61.29,-103.72 -95.93,-151.58 -22.3,-33.37 -60.02,-67.28 -93.93,-97.2 -29.56,-26.3 -56.94,-51.32 -62.01,-64.74 -126.75,-346.71 -264.93,-754.17 -298.84,-1207.13 -5.08,-69.09 -53.67,-220.68 -111.34,-319.15 -179.7,-293.59 -611.46,-797.14 -634.49,-821.99 -15.41,-15.96 -31.37,-32.1 -46.05,-46.05l-11.61 -11.61 -775.92 -644.82c-154.13,-108.08 -201.46,-127.29 -312.8,-167.55 -71.63,-26.29 -156.12,-39.71 -244.43,-39.71 -109.89,0 -219.4,21.21 -309.53,59.47 -62.01,32.64 -122.22,71.09 -180.42,108.8 -99.19,63.28 -201.47,128.57 -313.53,165.74 -86.31,38.99 -179.69,67.82 -270.54,95.93 -175.9,54.4 -358.13,110.61 -502.11,243.17 -42.26,38.99 -76.71,70.9 -105.54,98.47 -133.1,125.29 -147.24,138.71 -256.58,138.71 -252.6,0 -431.75,62.2 -617.98,214.34 -147.79,133.65 -294.13,259.13 -464.4,318.61 -76.7,26.29 -161.21,35.9 -251.33,44.79 -128.56,11.43 -148.52,12.87 -271.27,42.25 -183.69,42.26 -379.35,193.12 -544.36,322.41 -54.41,41.53 -126.75,97.93 -160.67,119.5 -17.77,11.6 -39.53,25.02 -56.94,35.36 -205.27,120.22 -399.12,233.37 -647.36,233.37 -6.35,0 -12.15,0 -17.96,0 -185.5,-13.42 -354.32,-140.71 -410.54,-310.26 -52.58,-190.58 3.81,-386.42 153.41,-536.02 71.63,-71.63 153.58,-141.43 232.28,-207.98 126.57,-108.08 246.98,-210.35 330.03,-321.7 96.65,-129.83 85.76,-348.69 -23.03,-468.19 -108.07,-119.14 -350.51,-178.61 -441.9,-200.38l-16.15 -4.36c-8.87,-1.99 -24.83,-3.8 -33.17,-5.8 -58.22,-11.61 -113.33,-19.23 -170.27,-33.36 -143.8,-39.54 -255.87,-150.88 -383.16,-219.96 -49.87,75.44 -65.83,157.4 -59.48,249.51 24.3,192.58 184.96,392.77 362.85,474.01 7.61,3.09 15.23,5.81 23.03,8.88 56.21,24.3 115.69,27.57 171.36,27.57 12.14,0 23.57,0 35.9,-0.73 12.15,0 24.3,0 35.72,0 34.63,0 75.43,-0.54 113.14,9.61 34.64,9.07 70.55,42.98 74.89,86.49 3.27,25.57 -8.33,45.34 -40.98,70.91 -29.92,25.02 -60.01,49.86 -90.12,74.89 -153.59,126.56 -312.25,257.85 -440.82,416.33 -172.63,186.24 -180.24,509.91 -99.73,719.71 102.45,276.36 386.43,430.49 622.52,460.59 41.53,7.07 83.78,10.33 127.84,10.33 138.9,0 271.27,-33.36 399.12,-66 4.53,-1.27 8.34,-1.81 12.33,-1.81 5.62,0 16.5,0 18.5,29.37 3.81,57.67 7.07,122.22 9.61,184.96 5.08,101.55 8.88,197.66 16.5,238.46 17.41,90.84 62.74,200.92 92.12,273.81 12.87,30.83 22.48,55.13 26.29,67.28 11.6,41.52 0.73,86.31 -26.84,111.87 -97.2,88.85 -294.31,159.94 -330.75,164.47 -58.21,7.07 -120.95,10.88 -166.28,12.69 -23.03,1.27 -40.98,2.54 -50.59,3.27 -21.76,2.54 -39.71,10.88 -54.4,25.57 -28.11,26.83 -58.21,104.99 -93.39,195.11 -21.76,54.4 -43.52,110.62 -65.28,157.4 -62.01,102.26 -165.55,162.47 -266.74,220.67 -24.84,14.7 -49.86,29.38 -74.16,44.07l-2.54 3.27c-41.53,65.28 -83.24,128.02 -136.19,174.63 -41.7,38.44 -94.11,47.32 -145.24,53.13l-3.27 0.54 -2.55 2.54c-77.96,90.31 -103.54,209.26 -128.01,325.13 -3.81,17.77 -7.62,35.17 -11.43,52.95l-3.26 16.68 10.34 0.73c40.97,3.81 82.5,12.7 126.56,22.3 57.66,12.88 117.14,25.57 175.35,25.57 55.68,0 103.54,-12.15 145.79,-35.17 74.89,-34.45 114.61,-103.54 153.59,-170.09 25.57,-43.53 51.86,-89.04 88.31,-124.22 21.03,-23.03 46.05,-33.91 79.24,-33.91 29.38,0 61.47,8.34 92.84,16.69 28.11,7.79 57.49,15.41 85.59,17.23 138.17,7.79 268.74,-79.25 333.29,-129.84 28.29,-22.3 55.67,-48.59 82.51,-73.43 42.25,-39.17 85.76,-79.97 131.83,-108.81 55.67,-26.83 124.22,-39.71 207.98,-39.71 103.55,0 214.34,20.49 302.47,37.18 47.32,12.14 95.38,18.49 143.43,18.49 84.32,0 162.48,-19.22 226.31,-55.67 77.42,-43.52 154.86,-84.5 217.59,-116.96 35.72,-19.23 68.37,-35.9 93.39,-50.04 111.34,-60.75 204.72,-229.03 239.91,-298.66 32.64,-64.55 88.3,-205.26 88.84,-206.71l2.55 -6.36 -128.56 -98.46 -5.81 8.88c-0.54,1.27 -85.05,140.71 -139.99,205.44 -227.03,309.54 -598.22,349.25 -894.88,349.25 -21.21,-0.73 -41.7,-1.27 -62.19,-1.27 -368.47,0 -664.58,124.04 -882.01,367.74 -10.33,11.61 -27.56,13.42 -35.35,3.81 -4.36,-5.62 -5.63,-15.23 -2.54,-26.83 5.81,-24.85 8.33,-32.65 23.75,-60.74 230.83,-327.49 624.34,-376.09 941.66,-381.89 234.64,-15.42 405.46,-56.22 553.25,-131.84 190.76,-96.47 331.47,-310.8 386.42,-480.34 36.44,-111.88 54.4,-230.29 71.63,-345.45 13.42,-91.39 27.57,-185.5 50.59,-272.54 3.81,-12.14 15.96,-18.5 26.3,-18.5 2.54,0 5.08,0.55 8.88,1.82 12.14,1.99 35.17,10.88 35.17,28.83 -31.92,179.7 -75.43,426.14 7.07,632.13 37.72,81.24 119.5,120.77 249.52,120.77 78.69,0 164.29,-13.42 246.79,-26.11 64.73,-10.34 124.76,-19.94 177.35,-22.49 21.57,-1.81 44.61,-2.54 67.09,-2.54 103,0 202.73,19.95 299.38,38.99 84.5,17.41 171.36,34.63 260.39,39.17 15.96,0.54 33.18,1.82 50.41,3.08 31.37,2.55 63.46,5.08 96.11,5.08 74.7,0 128.56,-14.69 167.54,-46.59 27.57,-22.49 17.96,-55.67 5.81,-97.93l-2.53 -7.06c-2,-7.62 -4.54,-15.24 -7.08,-23.58 -17.4,-55.67 -43.52,-140.16 0.55,-179.15 5.81,-4.54 15.41,-7.61 23.75,-7.61 7.61,0 17.23,2.54 20.49,13.42 5.08,15.96 9.61,31.92 13.96,48.59 19.23,67.1 38.99,136.91 82.51,196.38 90.3,115.69 230.29,225.22 404.37,316.07 111.88,77.25 246.98,207.26 257.86,388.23 0,81.96 -79.43,139.44 -138.91,174.63 -93.38,46.78 -239.9,103.72 -328.75,99.18 -59.47,-3.26 -108.8,-40.98 -112.61,-44.25 -90.84,-83.78 -80.69,-111.88 -139.43,-211.07 -31.38,-53.13 -64.01,-107.35 -105,-155.4 -56.94,-63.28 -127.84,-87.04 -223.76,-79.24 -92.84,7.61 -178.61,24.84 -280.34,46.59 -21.04,4.54 -37,17.23 -45.34,35.18 -8.88,19.94 -7.07,44.25 5.81,66.55 52.4,94.11 103.53,179.7 157.39,270.54l24.3 40.99c13.42,21.75 40.8,25.02 63.28,25.02 12.15,0 26.11,-1.27 40.26,-2 14.69,-1.27 30.65,-2.54 46.05,-2.54 46.78,0 76.7,11.43 95.93,35.18 15.96,25.02 31.37,51.86 45.52,77.43 35.18,64.01 72.17,129.83 132.92,176.62 55.67,49.87 136.36,77.97 220.86,77.97 36.45,0 72.89,-5.8 106.8,-15.96 243,-76.88 479.82,-155.58 704.84,-275.8l74.34 0c15.97,-1.82 32.47,-3.09 49.14,-4.36 78.16,-5.81 158.67,-11.6 215.61,-71.81 72.36,-104.81 134.37,-210.35 188.77,-321.15 48.6,-100.27 49.14,-197.65 0.55,-274.35 -143.25,-229.58 -168.82,-290.5 -227.76,-446.45l-1.27 -4.53 -4.36 -1.27c-17.4,-5.08 -33.9,-11.61 -50.59,-17.96 -35.17,-13.96 -71.63,-28.83 -113.87,-28.83l-5.08 0c-49.32,1.99 -82.51,17.41 -96.65,44.79l-2 4.54 260.39 513.72c16.69,40.25 35.9,80.51 25.57,140.71 -10.15,60.2 -138.17,260.93 -175.9,286.5 -9.61,6.54 -17.23,9.61 -23.02,9.61 -2.55,0 -16.51,-3.08 -7.62,-33.18 24.3,-83.23 54.95,-279.62 46.6,-342.17 -9.43,-73.08 -227.03,-433.76 -236.64,-449.17l-3.81 -6.35c-33.9,-55.13 -68.36,-112.06 -65.28,-179.15 0,-30.11 28.11,-51.86 48.6,-59.48 38.44,-14.69 74.34,-19.75 113.33,-28.11 92.66,-20.48 188.04,-41.7 222.49,-93.39 104.26,-158.66 166.46,-324.4 207.26,-553.42 2,-10.16 9.07,-29.38 23.75,-29.38 8.34,0 16.69,3.08 20.49,23.02 37.72,216.88 -14.15,444.63 -142.71,624.34 -7.06,10.15 -12.69,30.65 -8.88,49.87 2.54,18.49 23.57,33.35 23.57,33.35 49.87,33.73 232.29,14.69 364.66,-55.12 101,1.99 196.38,-15.96 289.22,-33.18 28.66,-5.81 58.22,-10.88 86.86,-16.14 9.06,5.8 16.14,13.6 17.96,20.48 -77.44,87.77 -124.77,186.23 -149.61,309 -21.21,22.49 -45.51,44.25 -68.54,65.28 -85.05,78.16 -176.44,164.47 -180.43,275.81 0,0 -2.54,39.53 40.44,43.34 13.42,0.73 28.65,-6.35 43.52,-12.69 15.96,-6.35 32.47,-12.88 44.61,-10.88 14.15,2.54 23.76,13.42 25.03,27.56l-96.66 141.26c-36.44,59.47 -21.03,122.22 -6.35,183.69 10.88,33.91 5.81,60.02 15.42,89.57 23.57,70.91 110.07,104.27 179.15,104.27 126.57,-5.8 240.99,-47.32 352.33,-87.04 19.94,-7.06 39.71,-14.68 59.47,-21.75 122.22,-52.41 284.69,-63.28 478,-31.92 155.95,-9.6 273.08,-112.6 385.7,-212.52 48.59,1.27 99.18,30.1 150.33,85.23 168.27,180.24 374.82,268.56 630.68,268.56 9.6,0 19.22,0 29.55,-0.55l25.57 -1.99c26.84,-6.36 33.91,-19.23 35.17,-35.72 1.82,-20.49 -13.41,-39.72 -42.25,-53.86l-143.25 -76.16c-114.6,-72.89 -239.9,-160.48 -274.54,-276.35 -36.98,-122.77 -106.08,-248.79 -157.94,-332.57 -10.33,-16.68 -21.21,-32.64 -33.36,-49.32 -20.3,-29.38 -40.8,-59.47 -55.49,-90.85l0.55 -0.54c156.12,56.22 243.7,172.09 349.24,363.93 78.15,143.25 282.88,298.11 476,298.11 25.57,0 49.87,-2.54 73.62,-7.61 21.03,-5.08 34.45,-17.95 37.71,-35.9 1.82,-15.24 0,-30.65 -17.95,-39.71zm-8941.71 307.72c14.69,12.15 37.71,28.29 70.91,28.29 18.67,0 38.98,-5.26 59.47,-15.41 107.53,-54.41 218.86,-254.06 223.4,-265.48 11.42,-32.64 -25.75,-62.01 -72.36,-99.18l-5.08 -4.54c-20.49,-16.5 -58.21,-13.96 -83.24,2.54 -17.23,12.33 -35.17,23.76 -52.4,35.36 -55.67,36.99 -113.33,74.7 -174.08,125.84 -21.76,18.68 -33.91,53.86 -36.45,80.7 -1.81,21.75 1.99,38.43 10.88,49.31 5.08,5.63 49.32,54.95 58.94,62.56zm-210.53 3.27c-3.81,0 -7.07,1.27 -10.15,1.99 -56.95,23.58 -123.5,97.75 -126.75,142.53 -14.69,193.3 -19.76,213.8 -72.89,273.27 -14.69,15.96 -25.03,54.22 -8.34,71.63 14.69,13.97 205.26,74.7 226.49,74.7l3.81 -0.54c17.23,-5.08 31.37,-48.59 69.82,-181.69 20.3,-72.36 44.06,-153.59 70.35,-227.76 1.82,-4.54 2.54,-11.43 -15.41,-35.72 -21.76,-32.1 -95.38,-118.41 -136.91,-118.41zm3747.83 -4248.46c669.98,-160.34 1166.88,-753.16 1166.88,-1460.13 0,-830.37 -686.1,-1503.24 -1531.39,-1503.24l-1858.79 0 0 3034.45c27.24,21.77 52.74,45.39 76.06,71.06 212.29,233.59 231.56,623.59 42.92,876.76 -36.33,48.77 -76.48,94.61 -118.98,138.4l0 568.84c19.81,-11.6 39.3,-23.15 58.45,-34.37 15.48,-9.08 30.74,-18.86 45.84,-28.56 45.34,-29.11 94,-69.27 136.86,-102.63 198.36,-154.43 420.44,-323.78 668.76,-381.82 62.18,-14.54 116.4,-24.78 171.77,-32.83l0 -3234.64 552.05 0c399.36,0 702.74,297.48 702.74,665.04 0,368.28 -323.79,666.43 -723.07,666.43l-250.99 0 0 1217.14 302.93 467.26c31.89,-27.57 61.89,-54.89 89.02,-79.42l5.99 -5.42 6.26 -5.11c243.79,-199.17 491.84,-283.76 803.86,-286.82 7.97,-7.23 16,-14.88 23.8,-22.43l-370.96 -527.99zm3306.94 -2089.03c297.48,0 538.83,272.89 538.83,570.35 0,297.67 -241.35,539.48 -538.83,539.48l-353.33 0 0 823.26c29.09,18.6 59.12,38.92 91.39,61.54l10.78 7.56 26.88 22.33 518.21 0c360.94,0 634,291.08 634,652.01 -4.41,124.08 -32.64,235.36 -82.8,329.55 63.96,78.43 127,157.65 188.69,237.82 91.38,118.78 183.76,242.82 262,370.64l1.64 2.68 1.59 2.71c45.52,77.73 91.59,185.63 121.7,289.87 372.92,-267.28 612.97,-685.26 612.97,-1154.16 0,-579.57 -204.15,-992.62 -889.06,-1310.46 278.33,-259.3 448.38,-607.22 448.38,-989.05 0,-346.04 -133.61,-664.08 -366.4,-913.71 -242.54,-266.94 -671.7,-416.6 -1251.25,-416.6l-1737.44 0 0 2882.07c32.98,-19.81 64.91,-40.6 94.5,-59.59 67.01,-43 133.8,-85.6 204.33,-122.73l11.82 -6.23 12.3 -5.22c135.61,-57.57 288.2,-85.06 435.24,-85.06 109.49,0 221.06,15.18 325.54,49.15l0 -1778.23 678.32 0z"/>
    <path class="fil2" d="M10123.27 4069.43c-3.42,269.7 240.35,420.19 423.98,509.67 188.67,91.82 252.04,150.69 251.32,232.78 -1.44,125.66 -150.51,181.11 -290.03,183.28 -243.41,3.78 -384.91,-65.72 -497.43,-118.29l-87.67 410.3c112.87,52.03 321.9,97.4 538.65,99.37 508.78,0 841.66,-251.14 843.46,-640.55 1.98,-494.19 -683.59,-521.55 -678.9,-742.46 1.62,-66.97 65.54,-138.44 205.59,-156.62 69.32,-9.19 260.68,-16.21 477.63,83.71l85.17 -396.97c-116.67,-42.49 -266.64,-83.18 -453.33,-83.18 -478.89,0 -815.73,254.57 -818.43,618.95zm2089.99 -584.75c-92.89,0 -171.21,54.19 -206.13,137.37l-726.8 1735.33 508.41 0 101.18 -279.59 621.29 0 58.7 279.59 448.1 0 -391.03 -1872.7 -413.72 0zm71.12 505.9l146.72 703.21 -401.82 0 255.11 -703.21zm-2777.54 -505.9l-400.76 1872.7 484.47 0 400.57 -1872.7 -484.28 0zm-716.71 0l-504.28 1274.63 -203.97 -1083.8c-23.94,-120.98 -118.46,-190.83 -223.42,-190.83l-824.37 0 -11.52 54.38c169.23,36.72 361.51,95.96 478,159.32 71.29,38.71 91.63,72.56 115.03,164.55l386.35 1494.44 512.02 0 784.93 -1872.7 -508.76 0z"/>
    <path class="fil1" d="M12257.82 16550.32l235.64 0 0 -59.83 -169.51 0 0 -100.78 150.62 0 0 -59.83 -150.62 0 0 -91.34 160.06 0 0 -59.84 -226.19 0 0 371.64zm-317.96 0l66.14 0 0 -311.79 109.91 0 0 -59.84 -285.95 0 0 59.84 109.91 0 0 311.79zm-678.96 0l235.65 0 0 -59.83 -169.51 0 0 -100.78 150.62 0 0 -59.83 -150.62 0 0 -91.34 160.06 0 0 -59.84 -226.2 0 0 371.64zm-462.62 0l66.14 0 0 -265.04 160.78 265.04 68 0 0 -371.64 -66.14 0 0 256.13 -157.11 -256.13 -71.67 0 0 371.64zm-472.67 -188.44c0,-74.01 50.91,-132.8 127.54,-132.8 77.16,0 128.08,58.79 128.08,132.8 0,79.26 -50.92,138.06 -128.08,138.06 -76.63,0 -127.54,-58.8 -127.54,-138.06zm-69.3 4.2c0,116 81.91,194.72 196.32,193.69 116.01,-1.04 197.89,-79.79 197.89,-195.79 0,-119.15 -81.89,-195.79 -197.89,-194.74 -114.41,1.03 -196.32,77.69 -196.32,196.84zm-571.89 42.52l54.27 -151.18 53.22 151.18 -107.49 0zm-130.18 141.72l74.01 0 33.59 -85.04 153.15 0 34.64 85.04 75.58 0 -156.1 -371.64 -57.21 0 -157.68 371.64zm-295.75 0l208.15 0 0 -59.83 -142.01 0 0 -311.8 -66.14 0 0 371.64zm-162.13 -371.64l-66.14 0 0 233.06c0,36.73 -19.94,85.04 -83.46,85.04 -63.52,0 -83.47,-48.28 -83.47,-85.04l0 -233.06 -66.14 0 0 235.16c0,89.75 64.57,145.93 149.61,145.93 85.04,0 149.6,-56.17 149.6,-145.93l0 -235.16zm-842.9 371.64l62.98 0 0 -288.66 105.92 288.66 46.18 0 105.92 -288.66 0 288.66 62.98 0 0 -371.64 -87.74 0 -104.25 284.34 -103.2 -284.34 -88.79 0 0 371.64zm-342.91 -214.16l0 -100.78 41.23 0c34.12,0 75.06,5.25 75.06,49.34 0,48.29 -43.6,51.44 -80.84,51.44l-35.45 0zm-66.13 214.16l66.13 0 0 -153.47 32.31 0 94.08 153.47 79.79 0 -106.68 -160.3c55.12,-7.87 86.08,-51.24 86.08,-104.78 0,-83.46 -67.21,-106.56 -138.57,-106.56l-113.13 0 0 371.64zm-476.68 -188.44c0,-74.01 50.92,-132.8 127.55,-132.8 77.16,0 128.08,58.79 128.08,132.8 0,79.26 -50.92,138.06 -128.08,138.06 -76.63,0 -127.55,-58.8 -127.55,-138.06zm-69.29 4.2c0,116 81.9,194.72 196.32,193.69 116,-1.05 197.89,-79.79 197.89,-195.79 0,-119.15 -81.89,-195.79 -197.89,-194.74 -114.42,1.04 -196.32,77.69 -196.32,196.84zm-342.14 184.24l66.14 0 0 -154.32 148.97 0 0 -59.83 -148.97 0 0 -97.64 158.94 0 0 -59.84 -225.08 0 0 371.64zm6124.34 0l62.99 0 0 -288.66 105.91 288.66 46.19 0 105.91 -288.66 0 288.66 62.99 0 0 -371.64 -87.74 0 -104.26 284.34 -103.2 -284.34 -88.79 0 0 371.64zm-360.63 -141.72l54.27 -151.18 53.22 151.18 -107.49 0zm-130.18 141.72l74.01 0 33.59 -85.04 153.15 0 34.64 85.04 75.58 0 -156.1 -371.64 -57.21 0 -157.68 371.64z"/>
    <g>
     <path class="fil3" d="M7332.26 14074.53c-182.26,0 -330.03,147.76 -330.03,330.04l0 771.78c0,182.27 147.77,330.03 330.03,330.03l764.12 0c182.28,0 330.04,-147.76 330.04,-330.03l0 -771.78c0,-182.28 -147.76,-330.04 -330.04,-330.04l-764.12 0z"/>
     <path class="fil4" d="M9581.46 14627.74c-5.75,3.48 -12.57,4.69 -19.17,3.4 -6.58,-1.31 -12.44,-5.02 -16.43,-10.41 -19.61,-28.14 -45.91,-50.96 -76.54,-66.39 -30.63,-15.43 -64.61,-22.99 -98.9,-22 -133.66,0 -215.72,105.77 -215.72,256.82 0,151.05 83.56,258.82 217.22,258.82 34.73,0.82 69.12,-7.24 99.87,-23.4 30.76,-16.17 56.88,-39.93 75.9,-69 3.8,-5.49 9.51,-9.32 16.01,-10.77 6.5,-1.45 13.31,-0.41 19.08,2.91l63.5 36.75c3.46,1.78 6.52,4.26 8.93,7.29 2.42,3.04 4.16,6.58 5.09,10.33 0.94,3.79 1.05,7.71 0.33,11.53 -0.72,3.83 -2.25,7.43 -4.5,10.62 -31.04,46.51 -73.38,84.41 -123.08,110.1 -49.67,25.69 -105.07,38.34 -160.97,36.76 -213.71,0 -358.58,-155.05 -358.58,-381.12 0,-226.07 144.87,-379.12 355.4,-379.12 54.98,-1.52 109.49,10.43 158.78,34.84 49.27,24.41 91.82,60.51 123.93,105.17 2.22,3.01 3.78,6.44 4.61,10.08 0.83,3.63 0.9,7.39 0.2,11.07 -0.68,3.66 -2.12,7.14 -4.21,10.23 -2.09,3.09 -4.8,5.71 -7.93,7.72l-62.83 37.75zm459.98 260.95c-24.55,18.55 -69.84,24.72 -118.12,33.42 -48.3,8.68 -88.39,21.55 -88.39,74.01 0,48.29 34.91,70.84 85.38,70.84 62.66,0 121.14,-34.9 121.14,-116.11l0 -62.16zm7.18 241.45l0 -30.74c-33.41,43.1 -80.03,69.83 -155.05,69.83 -110.95,0 -187.98,-60.65 -187.98,-167.08 0,-132.5 118.14,-155.23 190.98,-165.42 78.2,-11.35 144.86,-16.7 144.86,-67.83 0,-45.29 -52.29,-57.48 -96.58,-57.48 -50.83,0.84 -100.75,13.48 -145.87,36.92 -3.13,1.71 -6.58,2.79 -10.13,3.14 -3.56,0.35 -7.13,-0.03 -10.54,-1.11 -3.41,-1.08 -6.57,-2.83 -9.26,-5.17 -2.71,-2.33 -4.92,-5.19 -6.49,-8.39l-22.89 -47.78c-3.06,-6.2 -3.62,-13.32 -1.57,-19.91 2.05,-6.59 6.57,-12.15 12.6,-15.51 63.18,-33.63 133.62,-51.3 205.18,-51.46 127.32,0 217.21,52.3 217.21,178.78l0 349.21c0,7.08 -2.82,13.88 -7.83,18.91 -5.02,5.01 -11.81,7.81 -18.91,7.81l-69.85 0c-3.6,0.17 -7.2,-0.41 -10.58,-1.68 -3.38,-1.28 -6.47,-3.21 -9.06,-5.72 -2.62,-2.51 -4.7,-5.5 -6.12,-8.82 -1.41,-3.31 -2.14,-6.88 -2.14,-10.5zm239.28 -111.57c4.5,-5.25 10.87,-8.55 17.75,-9.2 6.89,-0.64 13.78,1.39 19.18,5.71 44.7,33.72 99.44,51.39 155.39,50.11 57.65,0 100.26,-18.55 100.26,-63.65 0,-41.11 -39.11,-49.29 -133.68,-65.84 -100.26,-16.71 -196.16,-50.11 -196.16,-164.41 0,-119.14 102.76,-169.43 219.87,-169.43 73.44,-1.09 145.18,22.44 203.7,66.83 2.84,2.24 5.22,5.04 6.97,8.21 1.73,3.19 2.8,6.69 3.14,10.3 0.36,3.61 -0.04,7.25 -1.14,10.7 -1.13,3.46 -2.94,6.64 -5.3,9.39l-33.41 39.26c-4.44,5.27 -10.69,8.63 -17.54,9.41 -6.83,0.77 -13.74,-1.1 -19.25,-5.24 -41.14,-30.12 -91,-46.06 -142.01,-45.45 -49.28,0 -92.4,14.36 -92.4,53.29 0,43.29 60.49,51.48 121.15,61.82 129.47,22.56 211.7,59.48 211.7,167.09 0,112.95 -90.39,182.8 -233.91,182.8 -78.46,2.39 -155.28,-22.67 -217.22,-70.85 -2.78,-2.29 -5.08,-5.09 -6.76,-8.26 -1.68,-3.17 -2.71,-6.64 -3.05,-10.22 -0.32,-3.58 0.06,-7.18 1.14,-10.61 1.09,-3.42 2.84,-6.59 5.17,-9.33l36.42 -42.45zm497.58 111.62l0 -680.04c0,-7.09 2.84,-13.89 7.84,-18.92 5.04,-5.01 11.8,-7.82 18.9,-7.82l77.04 0c7.1,0 13.9,2.82 18.9,7.82 5.02,5.03 7.84,11.82 7.84,18.92l0 232.25c19.17,-25.59 44.18,-46.22 72.95,-60.18 28.78,-13.94 60.48,-20.81 92.46,-20.02 113.95,0 180.77,81.21 180.77,197.17l0 330.83c0,7.09 -2.8,13.9 -7.8,18.91 -5.04,5.03 -11.84,7.83 -18.91,7.83l-77.02 0c-7.1,0 -13.91,-2.81 -18.92,-7.83 -5.03,-5.01 -7.82,-11.81 -7.82,-18.91l0 -300.76c0,-57.64 -18.56,-109.94 -92.41,-109.94 -70.03,0 -123.31,49.29 -123.31,131.5l0 279.38c0,7.07 -2.83,13.88 -7.84,18.9 -5,5.02 -11.79,7.83 -18.9,7.83l-77.04 0c-3.53,0.01 -7.02,-0.66 -10.29,-2 -3.27,-1.36 -6.21,-3.34 -8.7,-5.85 -2.5,-2.51 -4.47,-5.48 -5.77,-8.74 -1.35,-3.28 -2,-6.78 -1.98,-10.32zm1130.18 -587.56l-107.95 318.48 211.71 0 -103.76 -318.48zm194.16 596.34l-55.45 -163.74 -280.4 0 -55.62 163.74c-1.81,5.28 -5.21,9.85 -9.71,13.09 -4.54,3.24 -9.96,4.98 -15.54,4.96l-90.4 0c-4.31,0 -8.53,-1.05 -12.34,-3.04 -3.81,-1.99 -7.06,-4.88 -9.53,-8.39 -2.47,-3.53 -4.04,-7.58 -4.6,-11.86 -0.54,-4.26 -0.07,-8.58 1.43,-12.62l252.46 -680.23c2,-4.97 5.47,-9.23 9.93,-12.21 4.51,-2.98 9.74,-4.55 15.14,-4.49l123.48 0c5.48,0.02 10.84,1.7 15.35,4.84 4.5,3.14 7.93,7.56 9.87,12.71l251.48 680.04c1.47,4.05 1.94,8.4 1.4,12.67 -0.57,4.29 -2.16,8.35 -4.64,11.89 -2.5,3.53 -5.77,6.41 -9.59,8.38 -3.84,1.98 -8.1,3 -12.4,2.98l-95.41 0c-5.61,-0.13 -11.01,-2 -15.47,-5.36 -4.48,-3.36 -7.77,-8.02 -9.44,-13.36zm478.91 -83.65c90.37,0 133.65,-77.2 133.65,-170.59 0,-93.41 -44.13,-168.6 -133.65,-168.6 -89.56,0 -139.71,75.02 -139.71,168.6 0,93.57 47.64,170.59 139.71,170.59zm-139.71 -414.05l0 42.11c19.01,-26.28 44.18,-47.44 73.36,-61.61 29.14,-14.17 61.35,-20.9 93.72,-19.59 147.89,0 243.45,122.3 243.45,282.55 0,160.23 -95.57,284.04 -243.45,284.04 -32.47,1.23 -64.75,-5.65 -93.92,-19.99 -29.16,-14.35 -54.3,-35.73 -73.16,-62.2l0 221.72c0,7.08 -2.81,13.89 -7.8,18.9 -5.05,5.02 -11.84,7.83 -18.92,7.83l-77.02 0c-7.09,0 -13.91,-2.82 -18.91,-7.83 -5.04,-5.01 -7.83,-11.81 -7.83,-18.9l0 -668.35c0,-7.1 2.8,-13.9 7.83,-18.92 5,-5.02 11.81,-7.82 18.91,-7.82l77.02 0c3.61,0 7.21,0.73 10.55,2.15 3.32,1.43 6.33,3.53 8.83,6.15 2.5,2.63 4.43,5.73 5.7,9.13 1.27,3.4 1.84,7.01 1.64,10.64zm761.43 414.04c90.41,0 133.68,-77.2 133.68,-170.6 0,-93.4 -44.12,-168.59 -133.68,-168.59 -89.52,0 -139.84,75.02 -139.84,168.59 0,93.58 48.28,170.6 139.84,170.6zm-139.84 -414.05l0 42.12c19.01,-26.27 44.22,-47.41 73.35,-61.58 29.15,-14.17 61.35,-20.91 93.73,-19.64 148.06,0 243.62,122.32 243.62,282.55 0,160.24 -95.57,284.06 -243.62,284.06 -32.48,1.19 -64.75,-5.7 -93.9,-20.04 -29.17,-14.34 -54.31,-35.71 -73.18,-62.16l0 221.72c0,7.08 -2.81,13.89 -7.83,18.91 -5.01,5.01 -11.81,7.82 -18.88,7.82l-77.03 0c-7.1,0 -13.9,-2.82 -18.91,-7.82 -5.04,-5.02 -7.83,-11.82 -7.83,-18.91l0 -668.35c0,-7.09 2.8,-13.89 7.83,-18.91 5.01,-5.02 11.8,-7.83 18.91,-7.83l77.03 0c3.64,-0.03 7.2,0.68 10.56,2.11 3.35,1.42 6.38,3.51 8.88,6.14 2.5,2.63 4.42,5.75 5.69,9.16 1.24,3.41 1.78,7.03 1.58,10.66zm-5124.89 -34.16c-54.38,-46.01 -123.26,-71.31 -194.47,-71.43 -58.69,0 -117.35,19.45 -117.35,73.43 0,49.2 52.24,68.47 116.59,92.19 6.24,2.29 12.6,4.65 19.03,7.04 127.24,42.93 232.02,95.57 232.02,220.29 0,135.46 -105.11,228.01 -277.12,238.56l-15.59 72.58c-2.93,13.57 -14.96,23.22 -28.84,23.14l-108.13 0c-8.84,-0.21 -17.14,-4.34 -22.64,-11.27 -5.51,-6.92 -7.65,-15.94 -5.87,-24.6l16.78 -76.61c-64.93,-16.56 -124.62,-49.25 -173.53,-95.06 -5.66,-5.47 -8.85,-13 -8.85,-20.87 0,-7.87 3.2,-15.41 8.85,-20.87l60.03 -58.67c11.35,-11.17 29.55,-11.17 40.9,0 54.98,52.44 128.38,81.18 204.35,79.96 78.29,0 131.44,-33.19 131.44,-85.82 0,-47.6 -43.57,-63.53 -126.26,-93.79 -8.77,-3.21 -17.99,-6.58 -27.64,-10.16 -106.28,-37.88 -206.87,-92.03 -206.87,-217.93 0,-145.68 121.72,-216.76 265.22,-223.8l15.09 -73.94c2.99,-13.43 14.91,-22.98 28.67,-22.96l107.79 0c8.79,-0.02 17.12,3.91 22.67,10.7 5.57,6.8 7.76,15.74 6.01,24.33l-16.77 82.65c54.87,17.96 105.73,46.42 149.7,83.84 6.08,5.21 9.67,12.71 9.97,20.7 0.27,7.99 -2.79,15.74 -8.46,21.37l-55.99 56.16c-11.21,11.03 -29.08,11.4 -40.73,0.84z"/>
    </g>
   </g>
  </g>
 </g>
</svg>
